<?xml version="1.0" encoding="UTF-8" standalone="no"?>
<svg
   xmlns:dc="http://purl.org/dc/elements/1.1/"
   xmlns:cc="http://creativecommons.org/ns#"
   xmlns:rdf="http://www.w3.org/1999/02/22-rdf-syntax-ns#"
   xmlns:svg="http://www.w3.org/2000/svg"
   xmlns="http://www.w3.org/2000/svg"
   xmlns:sodipodi="http://sodipodi.sourceforge.net/DTD/sodipodi-0.dtd"
   xmlns:inkscape="http://www.inkscape.org/namespaces/inkscape"
   inkscape:version="1.0 (4035a4fb49, 2020-05-01)"
   sodipodi:docname="chart_icons.svg"
   id="svg6"
   version="1.1"
   width="24"
   viewBox="0 0 24 24"
   height="24">
  <metadata
     id="metadata12">
    <rdf:RDF>
      <cc:Work
         rdf:about="">
        <dc:format>image/svg+xml</dc:format>
        <dc:type
           rdf:resource="http://purl.org/dc/dcmitype/StillImage" />
      </cc:Work>
    </rdf:RDF>
  </metadata>
  <defs
     id="defs10" />
  <sodipodi:namedview
     inkscape:current-layer="stackedlinechart"
     inkscape:window-maximized="1"
     inkscape:window-y="-8"
     inkscape:window-x="1912"
     inkscape:cy="11.90086"
     inkscape:cx="12.626183"
     inkscape:zoom="26.221876"
     inkscape:guide-bbox="true"
     showguides="true"
     showgrid="false"
     id="namedview8"
     inkscape:window-height="1057"
     inkscape:window-width="1858"
     inkscape:pageshadow="2"
     inkscape:pageopacity="0"
     guidetolerance="10"
     gridtolerance="10"
     objecttolerance="10"
     borderopacity="1"
     bordercolor="#666666"
     pagecolor="#ffffff" />
  <g
     inkscape:label="barchart"
     id="barchart">
    <path
       inkscape:label="container"
       d="M 0,0 H 24 V 24 H 0 Z"
       fill="none"
       id="path2" />
    <path
       inkscape:label="icon"
       d="M 5,9.2 H 8 V 19 H 5 Z M 10.6,5 h 2.8 v 14 h -2.8 z m 5.6,8 H 19 v 6 h -2.8 z"
       id="path4" />
  </g>
  <g
     transform="translate(-24)"
     inkscape:label="piechart"
     id="piechart">
    <path
       inkscape:label="container"
       id="path2-1"
       fill="none"
       d="M 24,0 H 48 V 24 H 24 Z" />
    <path
       inkscape:label="icon"
       id="path4-8"
       d="M 35,2 V 22 C 29.93,21.5 26,17.21 26,12 26,6.79 29.93,2.5 35,2 Z m 2.03,0 v 8.99 H 46 C 45.53,6.25 41.76,2.47 37.03,2 Z m 0,11.01 V 22 c 4.74,-0.47 8.5,-4.25 8.97,-8.99 z" />
  </g>
  <g
     transform="translate(0,-24)"
     inkscape:label="scatterplot"
     id="scatterplot">
    <path
       inkscape:label="ds"
       id="path2-8"
       fill="none"
       d="M 0,24 H 24 V 48 H 0 Z" />
    <g
       inkscape:label="icon"
       id="g10"
       transform="translate(0,24)">
      <circle
         id="circle4"
         r="3"
         cy="14"
         cx="7" />
      <circle
         id="circle6"
         r="3"
         cy="6"
         cx="11" />
      <circle
         id="circle8"
         r="3"
         cy="17.6"
         cx="16.6" />
    </g>
  </g>
  <g
     inkscape:label="linechart"
     id="linechart"
     transform="translate(-18.432605,-20.72077)">
    <path
       d="m 18.432605,20.72077 h 24 v 24 h -24 z"
       fill="none"
       id="path2-87" />
    <path
       d="m 21.932605,39.21077 6,-6.01 4,4 8.5,-9.56 -1.41,-1.41 -7.09,7.97 -4,-4 -7.5,7.51 z"
       id="path4-5" />
  </g>
  <g
     inkscape:label="stackedlinechart"
     transform="translate(18.25432,-31.703966)"
     id="stackedlinechart">
    <rect
       style="fill:none;fill-opacity:1"
       id="rect2"
       width="24"
       height="24"
       fill="none"
       x="-18.25432"
       y="31.703966" />
    <path
       id="path4-9"
       d="m -16.25432,51.693966 7.5000003,-7.51 4,4 7.09,-7.97 1.41,1.41 -8.5,9.56 -4,-4 -6.0000003,6.01 z m 1.5,-4.5 6.0000003,-6.01 4,4 8.5,-9.56 -1.41,-1.41 -7.09,7.97 -4,-4 -7.5000003,7.51 z" />
  </g>
</svg>
