<svg xmlns="http://www.w3.org/2000/svg" width="18" height="18" version="1.1" viewBox="0 0 18 18">
   <path d="M3 1.5c-.825 0-1.5.675-1.5 1.5v12c0 .825.675 1.5 1.5 1.5h.984l.868-1.5H3v-3h3v1.012l1.107-1.916.393-.678V7.5h1.684l.865-1.5H7.5V3h3v2.227L12.654 1.5H3zM3 3h3v3H3V3zm0 4.5h3v3H3v-3z"></path>
   <path d="M10.615 6.727l-.914 1.58 1.188.685.912-1.582-1.186-.683zm1.977 1.14l-.914 1.582 2.373 1.37a2.283 2.283 0 01.836 3.117 2.283 2.283 0 01-3.12.835l-2.37-1.369-.915 1.582 2.373 1.37a4.109 4.109 0 005.612-1.504 4.109 4.109 0 00-1.502-5.614l-2.373-1.369zM7.42 12.262l-.914 1.582 1.185.683.914-1.582-1.185-.683z"></path>
   <path d="M12.064.523l-9.51 16.454.865.5 9.51-16.454z"></path>
</svg>