<svg
      xmlns="http://www.w3.org/2000/svg"
      width="104.244"
      height="104.244"
      version="1.1"
      viewBox="0 0 27.581 27.582"
    >
      <g
        fill="#3191df"
        fillOpacity="1"
        stroke="none"
        strokeLinecap="round"
        strokeOpacity="1"
        strokeWidth="2.646"
        transform="translate(2.511)"
      >
        <path d="M1.838 6.934v18.384a2.258 2.258 0 002.264 2.264h14.355a2.258 2.258 0 002.263-2.264V6.934zm2.706 2.318H5.95v16.066H4.544zm4.02 0h1.409v16.066H8.565zm4.022 0h1.408v16.066h-1.408zm4.021 0h1.408v16.066h-1.408z"></path>
        <path d="M8.353 0C7.665 0 7.11.554 7.11 1.242v1.876H.919c-.509 0-.919.41-.92.919V5.487h22.56V4.036a.917.917 0 00-.92-.919h-6.191V1.242C15.448.554 14.894 0 14.206 0H8.352zm.579 1.242h4.675c.332 0 .598.267.598.598v1.278H8.353V1.82c0-.32.258-.578.579-.578z"></path>
      </g>
    </svg>