<svg
   xmlns="http://www.w3.org/2000/svg"
   id="svg14"
   viewBox="0 0 49.136 49.137"
   version="1.1"
   height="185.712"
   width="185.712">
  <g transform="translate(-49.137)">
    <path
       transform="matrix(0.26458709,0,0,0.26458709,49.1365,0)"
       d="M 20.005859 0 C 9.0119369 1.480269e-15 0 9.0099868 0 20.003906 L 0 165.71289 C 0 176.70681 9.0119369 185.71094 20.005859 185.71094 L 165.71484 185.71094 C 176.70876 185.71094 185.71094 176.70681 185.71094 165.71289 L 185.71094 20.003906 C 185.71094 9.0099868 176.70876 7.1054274e-15 165.71484 0 L 20.005859 0 z M 20.005859 10.001953 L 58.576172 10.001953 L 58.576172 58.566406 L 10.003906 58.566406 L 10.003906 20.003906 C 10.003906 14.377014 14.378967 10.001953 20.005859 10.001953 z M 68.570312 10.001953 L 117.14258 10.001953 L 117.14258 58.566406 L 68.570312 58.566406 L 68.570312 10.001953 z M 127.14453 10.001953 L 165.71484 10.001953 C 171.34174 10.001953 175.7168 14.377014 175.7168 20.003906 L 175.7168 58.566406 L 127.14453 58.566406 L 127.14453 10.001953 z M 10.003906 68.570312 L 58.576172 68.570312 L 58.576172 117.14062 L 10.003906 117.14062 L 10.003906 68.570312 z M 68.570312 68.570312 L 117.14258 68.570312 L 117.14258 117.14062 L 68.570312 117.14062 L 68.570312 68.570312 z M 127.14453 68.570312 L 175.7168 68.570312 L 175.7168 117.14062 L 127.14453 117.14062 L 127.14453 68.570312 z M 10.003906 127.14453 L 58.576172 127.14453 L 58.576172 175.70898 L 20.005859 175.70898 C 14.378967 175.70898 10.003906 171.33978 10.003906 165.71289 L 10.003906 127.14453 z M 68.570312 127.14453 L 117.14258 127.14453 L 117.14258 175.70898 L 68.570312 175.70898 L 68.570312 127.14453 z M 127.14453 127.14453 L 175.7168 127.14453 L 175.7168 165.71289 C 175.7168 171.33978 171.34174 175.70898 165.71484 175.70898 L 127.14453 175.70898 L 127.14453 127.14453 z " />
  </g>
</svg>
