<svg xmlns="http://www.w3.org/2000/svg" width="185.715" height="185.713" version="1.1" viewBox="0 0 49.137 49.137">
   <g transform="translate(-15.308 -61.043)">
      <path
         transform="matrix(.26459 0 0 .26459 15.308 61.043)"
         d="M162.818 0l-6.668 10.002h9.56c5.628 0 10.003 4.368 10.003 9.994v38.576H127.14v-5.056l-10.036 15.052h.04v48.573h-32.42l-6.668 10.002h39.09v48.572H68.571v-34.346L58.57 156.371v19.344H45.674l-6.662 9.994h126.697c10.994 0 20.006-9.005 20.006-19.998V19.996C185.715 9.003 176.705 0 165.71 0h-2.893zm-35.677 68.568h48.572v48.573H127.14V68.568zm0 58.575h48.572v38.568c0 5.626-4.375 10.004-10.002 10.004h-38.57v-48.572z"></path>
      <path
         transform="matrix(.26459 0 0 .26459 15.308 61.043)"
         d="M20.002 0C9.009 0 .006 9.003.006 19.996v145.715c0 9.166 6.264 16.932 14.717 19.266l6.175-9.262h-.896c-5.626 0-10.002-4.378-10.002-10.004v-38.568h43.28l15.294-22.944V68.57h23.754l6.664-9.997H68.574v-48.57h48.574V31.34l9.993-14.988v-6.35h4.232L138.041 0H20.002zm0 10.002h38.57v48.57H10V19.996c0-5.626 4.376-9.994 10.002-9.994zM10 68.568h48.572v48.573H10V68.568z"></path>
      <path
         d="M53.696 61.043h2.827L23.765 110.18h-2.827z"></path>
   </g>
</svg>