<svg xmlns="http://www.w3.org/2000/svg" width="18" height="18" version="1.1" viewBox="0 0 18 18">
   <path d="M3 1.5c-.825 0-1.5.675-1.5 1.5v12c0 .825.675 1.5 1.5 1.5h.984l.868-1.5H3v-3h3v1.012l1.107-1.916.393-.678V7.5h1.684l.865-1.5H7.5V3h3v2.227L12.654 1.5H3zM3 3h3v3H3V3zm0 4.5h3v3H3v-3z"></path>
   <path d="M8.483 14.984l2.372 1.37a4.109 4.109 0 005.612-1.504 4.109 4.109 0 00-1.503-5.613l-2.373-1.37-.913 1.582 2.373 1.37a2.283 2.283 0 01.835 3.117 2.283 2.283 0 01-3.118.836l-2.372-1.37m1.492-4.41l.913-1.581-1.186-.685-.913 1.581m-2.01 6.22l.913-1.581-1.186-.685-.913 1.582M8.59 9.775l2.052 3.293.457-.79 2.174 1.255-2.052-3.294-.457.791z"></path>
   <path d="M12.064.523l-9.51 16.454.865.5 9.51-16.454z"></path>
</svg>